<svg id="Слой_1" data-name="Слой 1" xmlns="http://www.w3.org/2000/svg" xmlns:xlink="http://www.w3.org/1999/xlink" viewBox="0 0 412.33 187.84"><defs><style>.cls-1{fill:url(#Безымянный_градиент_12);}.cls-2{fill:url(#Безымянный_градиент_12-2);}.cls-3{fill:url(#Безымянный_градиент_3);}</style><linearGradient id="Безымянный_градиент_12" x1="266.07" y1="52" x2="279.09" y2="15.49" gradientUnits="userSpaceOnUse"><stop offset="0" stop-color="#6f68f2"/><stop offset="1" stop-color="#7bb1f9"/></linearGradient><linearGradient id="Безымянный_градиент_12-2" x1="252.64" y1="72.68" x2="277.44" y2="48.74" xlink:href="#Безымянный_градиент_12"/><linearGradient id="Безымянный_градиент_3" x1="412.33" y1="93.92" x2="0" y2="93.92" xlink:href="#Безымянный_градиент_12"/></defs><title>1</title><path class="cls-1" d="M286.21,31.57a26.2,26.2,0,0,0,1.67-3.09c.34-.73.65-1.47.93-2.24A28.37,28.37,0,0,0,285-.27,28.36,28.36,0,0,0,267.47,12.5,28.77,28.77,0,0,0,265,17.59c-.28.77-.53,1.54-.74,2.31a29.8,29.8,0,0,0-.7,3.43,17.63,17.63,0,0,0-7.12,8.88c-.05.13-.1.27-.14.41a28.83,28.83,0,0,0,7.86,1.66,29,29,0,0,0,1.74,4.89l8.31,3a29.1,29.1,0,0,0,4.47-2.63,28.39,28.39,0,0,0,7.1,3.79L286,43A17.58,17.58,0,0,0,286.21,31.57Zm-8.91-10.7a3.54,3.54,0,1,1,4.54-2.12A3.54,3.54,0,0,1,277.3,20.87Z"/><path class="cls-2" d="M278.49,60.82a7.19,7.19,0,0,0-2.11-.42,5.7,5.7,0,0,1,1,4.81,5.57,5.57,0,0,1-.53,1.38,6.38,6.38,0,0,0-8.29-7.41,5.71,5.71,0,0,1,4.61-.86,5.5,5.5,0,0,1,1.14.4,28.22,28.22,0,0,1-1.76-15l-5.95-2.17a28.31,28.31,0,0,1-12.43,11.09,5.68,5.68,0,0,1,3.38,4.7,6.36,6.36,0,0,0-11-1.55,5.75,5.75,0,0,1,5-3.63l-.15-.06a7.09,7.09,0,1,0-.71,13.54,7.1,7.1,0,0,0,4.12,3.93,7,7,0,0,0,1.25.33,5.71,5.71,0,0,1-.79-4.6,5.91,5.91,0,0,1,.54-1.38,6.36,6.36,0,0,0,8.2,7.51,5.73,5.73,0,0,1-7.38-.81,7.09,7.09,0,1,0,14,1.55A7.09,7.09,0,0,0,282.67,70a.5.5,0,0,0,.05-.13A7.08,7.08,0,0,0,278.49,60.82Zm-18.91,4.34a5.72,5.72,0,0,1,1.84-7.87,6,6,0,0,1,1.35-.61,6.35,6.35,0,0,0-2,8.7,6.25,6.25,0,0,0,2.67,2.39A5.7,5.7,0,0,1,259.58,65.16Z"/><path class="cls-3" d="M38.12,108.45Q22,108.45,11,97.35T0,70.11Q0,54,11,43T38.12,32q16.14,0,27.13,11t11,27.13v36.08A25.3,25.3,0,0,1,51,131.6H38.12a17.22,17.22,0,0,0-12.74,5.3,17.58,17.58,0,0,0-5.22,12.81,17.89,17.89,0,0,0,18,18,18,18,0,0,0,18-18,9.86,9.86,0,0,1,10.15-10.15,9.73,9.73,0,0,1,7.23,2.81,10,10,0,0,1,2.77,7.34,36.77,36.77,0,0,1-11.06,27.06,36.79,36.79,0,0,1-27.06,11.07,36.81,36.81,0,0,1-27.06-11.07A36.81,36.81,0,0,1,0,149.71a37.27,37.27,0,0,1,11-27.16,36.39,36.39,0,0,1,27-11.18H51a4.8,4.8,0,0,0,3.61-1.57,5.08,5.08,0,0,0,1.5-3.61V70.11a18,18,0,0,0-18-18,17.89,17.89,0,0,0-18,18,17.58,17.58,0,0,0,5.22,12.82,17.21,17.21,0,0,0,12.74,5.29A10.05,10.05,0,0,1,45.43,91a9.67,9.67,0,0,1,2.84,7.23,9.75,9.75,0,0,1-10.15,10.22Zm66.53-66.16V75.81a12,12,0,0,0,12.13,12.12,11.47,11.47,0,0,0,8.54-3.51,11.82,11.82,0,0,0,3.43-8.61V42a9.64,9.64,0,0,1,2.85-7.23A10,10,0,0,1,138.9,32a9.46,9.46,0,0,1,10,10V75.81a31.29,31.29,0,0,1-9.28,22.93,30.93,30.93,0,0,1-22.85,9.35q-13.74,0-23-9.28a31.24,31.24,0,0,1-9.27-23V42.29A10.1,10.1,0,0,1,87.24,35a9.59,9.59,0,0,1,7.26-2.85,9.76,9.76,0,0,1,10.15,10.16ZM190.9,30.16A9.33,9.33,0,0,1,197.66,33a9.15,9.15,0,0,1,2.88,6.72,9.29,9.29,0,0,1-2.85,6.75,9.19,9.19,0,0,1-6.79,2.89,18.4,18.4,0,0,0-7.45,1.5A19.63,19.63,0,0,0,177.39,55a18.87,18.87,0,0,0-4.12,6,18.6,18.6,0,0,0-1.5,7.52V97.2a9.57,9.57,0,0,1-19.14,0V68.5a37.18,37.18,0,0,1,3-14.9,39,39,0,0,1,8.21-12.19A38.28,38.28,0,0,1,176,33.16,37.18,37.18,0,0,1,190.9,30.16ZM338.24,3.65a11.91,11.91,0,0,1,3.69,8.77,11.91,11.91,0,0,1-3.69,8.72,12.21,12.21,0,0,1-17.49,0,12,12,0,0,1-3.65-8.72,12,12,0,0,1,3.65-8.77,12.3,12.3,0,0,1,17.49,0ZM339.67,42q0-10-10.16-10a9.46,9.46,0,0,0-10,10V98.08a9.42,9.42,0,0,0,10,10,10.15,10.15,0,0,0,7.31-2.74,9.62,9.62,0,0,0,2.85-7.27Zm72.66,33.82a31.32,31.32,0,0,1-9.27,22.93,32.17,32.17,0,0,1-55.14-22.93V24.39A10.17,10.17,0,0,1,350.66,17a9.59,9.59,0,0,1,7.26-2.85,9.75,9.75,0,0,1,10.15,10.22v7.89h34.26a9.78,9.78,0,0,1,7.26,2.77,9.87,9.87,0,0,1,2.74,7.24q0,10.22-10,10.22H368.07v23.3A12,12,0,0,0,380.2,87.93a11.47,11.47,0,0,0,8.54-3.51,11.82,11.82,0,0,0,3.43-8.61V74.49a9.67,9.67,0,0,1,2.93-7.23,9.92,9.92,0,0,1,7.23-2.85,9.69,9.69,0,0,1,7.15,2.85,9.8,9.8,0,0,1,2.85,7.23ZM273,75.86a9.39,9.39,0,0,1-1.12-.51,9,9,0,0,1-8.25,5.53,8.9,8.9,0,0,1-8.89-9.44l-.51-.17-.24-.1V75.8a11.84,11.84,0,0,1-3.43,8.62A11.48,11.48,0,0,1,242,87.93,12,12,0,0,1,229.9,75.8V42.27a9.76,9.76,0,0,0-10.15-10.15A9.61,9.61,0,0,0,212.48,35a10.08,10.08,0,0,0-2.74,7.3V75.8q0,13.74,9.27,23a32.24,32.24,0,0,0,55.15-22.62A11.59,11.59,0,0,1,273,75.86Z"/></svg>